<mxfile host="app.diagrams.net" modified="2024-08-06T13:50:22.545Z" agent="Mozilla/5.0 (Windows NT 10.0; Win64; x64) AppleWebKit/537.36 (KHTML, like Gecko) Chrome/127.0.0.0 Safari/537.36" etag="zhs4E9bB-IMHjInVJodY" version="24.2.1" type="device">
  <diagram name="ページ1" id="ORUW7EXde5bZZvXY3FjW">
    <mxGraphModel dx="1195" dy="622" grid="1" gridSize="10" guides="1" tooltips="1" connect="1" arrows="1" fold="1" page="1" pageScale="1" pageWidth="827" pageHeight="1169" math="0" shadow="0">
      <root>
        <mxCell id="0" />
        <mxCell id="1" parent="0" />
        <mxCell id="tsZTn7IGBllT_UoQQOa6-4" value="" style="verticalLabelPosition=bottom;verticalAlign=top;html=1;shadow=0;dashed=0;strokeWidth=1;shape=mxgraph.android.phone2;strokeColor=#c0c0c0;" vertex="1" parent="1">
          <mxGeometry x="60" y="60" width="15.38" height="30" as="geometry" />
        </mxCell>
        <mxCell id="tsZTn7IGBllT_UoQQOa6-5" value="" style="image;aspect=fixed;html=1;points=[];align=center;fontSize=12;image=img/lib/azure2/other/API_Proxy.svg;" vertex="1" parent="1">
          <mxGeometry x="172" y="56" width="68" height="38" as="geometry" />
        </mxCell>
        <mxCell id="tsZTn7IGBllT_UoQQOa6-6" value="" style="ellipse;shape=cloud;whiteSpace=wrap;html=1;" vertex="1" parent="1">
          <mxGeometry x="330" y="56" width="52.5" height="35" as="geometry" />
        </mxCell>
        <mxCell id="tsZTn7IGBllT_UoQQOa6-7" value="Webソケット" style="rounded=0;whiteSpace=wrap;html=1;" vertex="1" parent="1">
          <mxGeometry x="75.38" y="65" width="84.62" height="20" as="geometry" />
        </mxCell>
        <mxCell id="tsZTn7IGBllT_UoQQOa6-8" value="Webソケット" style="rounded=0;whiteSpace=wrap;html=1;" vertex="1" parent="1">
          <mxGeometry x="240" y="63.5" width="84.62" height="20" as="geometry" />
        </mxCell>
        <mxCell id="tsZTn7IGBllT_UoQQOa6-9" value="Android端末" style="text;html=1;align=center;verticalAlign=middle;whiteSpace=wrap;rounded=0;" vertex="1" parent="1">
          <mxGeometry x="27.689999999999998" y="15" width="80" height="30" as="geometry" />
        </mxCell>
        <mxCell id="tsZTn7IGBllT_UoQQOa6-10" value="mitmproxy&lt;div&gt;（プロキシ―）&lt;/div&gt;" style="text;html=1;align=center;verticalAlign=middle;whiteSpace=wrap;rounded=0;" vertex="1" parent="1">
          <mxGeometry x="166" y="10" width="94" height="40" as="geometry" />
        </mxCell>
        <mxCell id="tsZTn7IGBllT_UoQQOa6-11" value="Webソケット&lt;div&gt;サーバー&lt;/div&gt;" style="text;html=1;align=center;verticalAlign=middle;whiteSpace=wrap;rounded=0;" vertex="1" parent="1">
          <mxGeometry x="309.25" y="10" width="94" height="40" as="geometry" />
        </mxCell>
        <mxCell id="tsZTn7IGBllT_UoQQOa6-12" value="" style="endArrow=none;dashed=1;html=1;dashPattern=1 3;strokeWidth=2;rounded=0;" edge="1" parent="1">
          <mxGeometry width="50" height="50" relative="1" as="geometry">
            <mxPoint x="70" y="450" as="sourcePoint" />
            <mxPoint x="70" y="94" as="targetPoint" />
          </mxGeometry>
        </mxCell>
        <mxCell id="tsZTn7IGBllT_UoQQOa6-13" value="" style="endArrow=none;dashed=1;html=1;dashPattern=1 3;strokeWidth=2;rounded=0;" edge="1" parent="1">
          <mxGeometry width="50" height="50" relative="1" as="geometry">
            <mxPoint x="200" y="450" as="sourcePoint" />
            <mxPoint x="200" y="94" as="targetPoint" />
          </mxGeometry>
        </mxCell>
        <mxCell id="tsZTn7IGBllT_UoQQOa6-14" value="" style="endArrow=none;dashed=1;html=1;dashPattern=1 3;strokeWidth=2;rounded=0;" edge="1" parent="1">
          <mxGeometry width="50" height="50" relative="1" as="geometry">
            <mxPoint x="355.83" y="450" as="sourcePoint" />
            <mxPoint x="355.83" y="94" as="targetPoint" />
          </mxGeometry>
        </mxCell>
        <mxCell id="tsZTn7IGBllT_UoQQOa6-19" value="" style="endArrow=classic;html=1;rounded=0;" edge="1" parent="1">
          <mxGeometry width="50" height="50" relative="1" as="geometry">
            <mxPoint x="197.69" y="250" as="sourcePoint" />
            <mxPoint x="67.69" y="250" as="targetPoint" />
          </mxGeometry>
        </mxCell>
        <mxCell id="tsZTn7IGBllT_UoQQOa6-20" value="" style="endArrow=classic;html=1;rounded=0;" edge="1" parent="1">
          <mxGeometry width="50" height="50" relative="1" as="geometry">
            <mxPoint x="350" y="139.57999999999998" as="sourcePoint" />
            <mxPoint x="220" y="139.57999999999998" as="targetPoint" />
          </mxGeometry>
        </mxCell>
        <mxCell id="tsZTn7IGBllT_UoQQOa6-21" value="サーバーから&lt;div&gt;メッセージ送信&lt;/div&gt;" style="text;html=1;align=center;verticalAlign=middle;whiteSpace=wrap;rounded=0;" vertex="1" parent="1">
          <mxGeometry x="370" y="120" width="100" height="40" as="geometry" />
        </mxCell>
        <mxCell id="tsZTn7IGBllT_UoQQOa6-24" value="&quot;A&quot;" style="shape=note;whiteSpace=wrap;html=1;backgroundOutline=1;darkOpacity=0.05;size=10;" vertex="1" parent="1">
          <mxGeometry x="110" y="290" width="50" height="30" as="geometry" />
        </mxCell>
        <mxCell id="tsZTn7IGBllT_UoQQOa6-25" value="&quot;A&quot;" style="shape=note;whiteSpace=wrap;html=1;backgroundOutline=1;darkOpacity=0.05;size=10;" vertex="1" parent="1">
          <mxGeometry x="260" y="105" width="50" height="30" as="geometry" />
        </mxCell>
        <mxCell id="tsZTn7IGBllT_UoQQOa6-27" value="" style="endArrow=classic;html=1;rounded=0;" edge="1" parent="1">
          <mxGeometry width="50" height="50" relative="1" as="geometry">
            <mxPoint x="347.31" y="250" as="sourcePoint" />
            <mxPoint x="217.31" y="250" as="targetPoint" />
          </mxGeometry>
        </mxCell>
        <mxCell id="tsZTn7IGBllT_UoQQOa6-28" value="&quot;B&quot;" style="shape=note;whiteSpace=wrap;html=1;backgroundOutline=1;darkOpacity=0.05;size=10;" vertex="1" parent="1">
          <mxGeometry x="260" y="210" width="50" height="30" as="geometry" />
        </mxCell>
        <mxCell id="tsZTn7IGBllT_UoQQOa6-29" value="&quot;B&quot;" style="shape=note;whiteSpace=wrap;html=1;backgroundOutline=1;darkOpacity=0.05;size=10;" vertex="1" parent="1">
          <mxGeometry x="110" y="210" width="50" height="30" as="geometry" />
        </mxCell>
        <mxCell id="tsZTn7IGBllT_UoQQOa6-30" value="" style="endArrow=classic;html=1;rounded=0;" edge="1" parent="1">
          <mxGeometry width="50" height="50" relative="1" as="geometry">
            <mxPoint x="197.69" y="330" as="sourcePoint" />
            <mxPoint x="67.69" y="330" as="targetPoint" />
          </mxGeometry>
        </mxCell>
        <mxCell id="tsZTn7IGBllT_UoQQOa6-32" value="❌" style="text;html=1;align=center;verticalAlign=middle;whiteSpace=wrap;rounded=0;" vertex="1" parent="1">
          <mxGeometry x="180" y="120" width="40" height="40" as="geometry" />
        </mxCell>
        <mxCell id="tsZTn7IGBllT_UoQQOa6-33" value="&lt;div&gt;メッセージをドロップ&lt;/div&gt;" style="text;html=1;align=center;verticalAlign=middle;whiteSpace=wrap;rounded=0;" vertex="1" parent="1">
          <mxGeometry x="200" y="150" width="140" height="30" as="geometry" />
        </mxCell>
        <mxCell id="tsZTn7IGBllT_UoQQOa6-34" value="ドロップした&lt;div&gt;メッセージを&lt;div&gt;再送信&lt;/div&gt;&lt;/div&gt;" style="text;html=1;align=center;verticalAlign=middle;whiteSpace=wrap;rounded=0;" vertex="1" parent="1">
          <mxGeometry x="200" y="300" width="90" height="60" as="geometry" />
        </mxCell>
        <mxCell id="tsZTn7IGBllT_UoQQOa6-35" value="" style="endArrow=none;dashed=1;html=1;dashPattern=1 3;strokeWidth=2;rounded=0;" edge="1" parent="1">
          <mxGeometry width="50" height="50" relative="1" as="geometry">
            <mxPoint x="220" y="300" as="sourcePoint" />
            <mxPoint x="200" y="190" as="targetPoint" />
            <Array as="points">
              <mxPoint x="220" y="190" />
            </Array>
          </mxGeometry>
        </mxCell>
      </root>
    </mxGraphModel>
  </diagram>
</mxfile>
